<?xml version="1.0" encoding="UTF-8"?>
<svg xmlns="http://www.w3.org/2000/svg" fill="none" viewBox="0 0 24 25"><path fill="#3D3935" d="M12 8.248a.75.75 0 0 0 0 1.5h.01a.75.75 0 0 0 0-1.5H12zM11.25 16.998a.75.75 0 1 0 1.5 0v-4a.75.75 0 0 0-1.5 0v4z" style="fill: #da291c;"/><path fill="#3D3935" fill-rule="evenodd" d="M12 3.248c-5.385 0-9.75 4.365-9.75 9.75s4.365 9.75 9.75 9.75 9.75-4.365 9.75-9.75-4.365-9.75-9.75-9.75zm-8.25 9.75a8.25 8.25 0 1 1 16.5 0 8.25 8.25 0 0 1-16.5 0z" clip-rule="evenodd" style="fill: #da291c;"/></svg>
